HIERARCHY
ROOT root
{
	OFFSET 0.000000 0.000000 0.000000
	CHANNELS 6 Xposition Yposition Zposition Zrotation Yrotation Xrotation
	JOINT lhip
	{
		OFFSET 0.058581 -0.082280 -0.017664
		CHANNELS 3 Zrotation Yrotation Xrotation
		JOINT lknee
		{
			OFFSET 0.043451 -0.386469 0.008037
			CHANNELS 3 Zrotation Yrotation Xrotation
			JOINT lankle
			{
				OFFSET -0.014790 -0.426874 -0.037428
				CHANNELS 3 Zrotation Yrotation Xrotation
				JOINT ltoe
				{
					OFFSET 0.041054 -0.060286 0.122042
					CHANNELS 3 Zrotation Yrotation Xrotation
					End Site
					{
						OFFSET 0.000000 0.000000 0.000000
					}
				}
			}
		}
	}
	JOINT rhip
	{
		OFFSET -0.060310 -0.090513 -0.013543
		CHANNELS 3 Zrotation Yrotation Xrotation
		JOINT rknee
		{
			OFFSET -0.043257 -0.383688 -0.004843
			CHANNELS 3 Zrotation Yrotation Xrotation
			JOINT rankle
			{
				OFFSET 0.019056 -0.420046 -0.034562
				CHANNELS 3 Zrotation Yrotation Xrotation
				JOINT rtoe
				{
					OFFSET -0.034840 -0.062106 0.130323
					CHANNELS 3 Zrotation Yrotation Xrotation
					End Site
					{
						OFFSET 0.000000 0.000000 0.000000
					}
				}
			}
		}
	}
	JOINT lowerback
	{
		OFFSET 0.004439 0.124404 -0.038385
		CHANNELS 3 Zrotation Yrotation Xrotation
		JOINT upperback
		{
			OFFSET 0.004488 0.137956 0.026820
			CHANNELS 3 Zrotation Yrotation Xrotation
			JOINT chest
			{
				OFFSET -0.002265 0.056032 0.002855
				CHANNELS 3 Zrotation Yrotation Xrotation
				JOINT lowerneck
				{
					OFFSET -0.013390 0.211636 -0.033468
					CHANNELS 3 Zrotation Yrotation Xrotation
					JOINT upperneck
					{
						OFFSET 0.010113 0.088937 0.050410
						CHANNELS 3 Zrotation Yrotation Xrotation
						End Site
						{
							OFFSET 0.000000 0.000000 0.000000
						}
					}
				}
				JOINT lclavicle
				{
					OFFSET 0.071702 0.114000 -0.018898
					CHANNELS 3 Zrotation Yrotation Xrotation
					JOINT lshoulder
					{
						OFFSET 0.122921 0.045205 -0.019046
						CHANNELS 3 Zrotation Yrotation Xrotation
						JOINT lelbow
						{
							OFFSET 0.255332 -0.015649 -0.022946
							CHANNELS 3 Zrotation Yrotation Xrotation
							JOINT lwrist
							{
								OFFSET 0.265709 0.012698 -0.007375
								CHANNELS 3 Zrotation Yrotation Xrotation
								End Site
								{
									OFFSET 0.000000 0.000000 0.000000
								}
							}
						}
					}
				}
				JOINT rclavicle
				{
					OFFSET -0.082954 0.112472 -0.023707
					CHANNELS 3 Zrotation Yrotation Xrotation
					JOINT rshoulder
					{
						OFFSET -0.113228 0.046853 -0.008472
						CHANNELS 3 Zrotation Yrotation Xrotation
						JOINT relbow
						{
							OFFSET -0.260127 -0.014369 -0.031269
							CHANNELS 3 Zrotation Yrotation Xrotation
							JOINT rwrist
							{
								OFFSET -0.269108 0.006794 -0.006027
								CHANNELS 3 Zrotation Yrotation Xrotation
								End Site
								{
									OFFSET 0.000000 0.000000 0.000000
								}
							}
						}
					}
				}
			}
		}
	}
}
MOTION
Frames: 7
Frame Time: 0.033333
0.360660 0.167163 0.998859 84.275024 0.779491 90.548829 7.710788 5.071469 5.174056 -4.168460 -0.315087 -5.166222 0.319207 8.439775 -3.461270 0.000000 -0.000000 0.000000 -6.650358 -3.129506 0.387778 2.312860 0.099990 0.585736 5.595860 -3.029765 -5.732486 0.000000 -0.000000 0.000000 -4.616042 3.607291 -9.275722 2.765812 -2.315972 16.490679 -0.551981 1.338580 -6.186998 4.362003 7.180124 4.966340 4.320028 -0.170711 -2.307351 -28.371958 -1.724686 -1.571250 -54.081441 -5.747535 18.149912 0.895956 -20.217881 9.696896 -9.135646 -13.604095 14.015289 31.288965 4.264453 6.070792 53.176417 3.769032 14.236666 -8.788257 23.883024 -3.490999 3.145833 12.711412 5.186260 
0.360614 0.167145 0.998795 84.281873 0.778862 90.527870 7.703425 5.054297 5.190818 -4.152025 -0.333166 -5.168084 0.310488 8.447807 -3.467637 0.000000 -0.000000 0.000000 -6.652051 -3.116943 0.393898 2.306000 0.111030 0.613428 5.600822 -3.055089 -5.755504 0.000000 -0.000000 0.000000 -4.596689 3.585330 -9.179961 2.730388 -2.258733 16.324054 -0.534044 1.391165 -6.097889 4.344589 7.118461 4.815977 4.323541 -0.217026 -2.099418 -28.313987 -1.734732 -1.535281 -54.128026 -5.759843 18.069890 0.872668 -20.251934 9.834770 -9.177379 -13.576715 14.030434 31.212189 4.252997 6.099442 53.303954 3.741062 14.215475 -8.890185 23.923150 -3.469672 3.148795 12.690222 5.150038 
0.360524 0.167158 0.998731 84.287815 0.778788 90.509404 7.699442 5.041646 5.205051 -4.147276 -0.345371 -5.174755 0.304610 8.451889 -3.461235 0.000000 -0.000000 0.000000 -6.653120 -3.108530 0.423925 2.304055 0.130706 0.587125 5.599656 -3.085754 -5.759771 0.000000 -0.000000 0.000000 -4.584686 3.570443 -9.111615 2.705582 -2.220126 16.213172 -0.526439 1.422723 -6.041806 4.324015 7.061143 4.719041 4.330121 -0.252993 -1.949494 -28.284308 -1.735700 -1.517039 -54.136801 -5.770751 18.006266 0.837373 -20.277649 9.934012 -9.198983 -13.536571 14.060465 31.160976 4.216257 6.091913 53.384009 3.708033 14.191425 -8.937047 23.975722 -3.444013 3.163406 12.662475 5.160515 
0.360444 0.167174 0.998693 84.298928 0.779619 90.498369 7.696768 5.022525 5.209482 -4.145516 -0.347231 -5.168223 0.292034 8.451527 -3.470108 0.000000 -0.000000 0.000000 -6.651711 -3.100219 0.462519 2.302096 0.149839 0.529729 5.604285 -3.114323 -5.753983 0.000000 -0.000000 0.000000 -4.583585 3.549654 -9.071507 2.676142 -2.204898 16.114266 -0.509122 1.410329 -5.959040 4.333563 7.047369 4.622281 4.321521 -0.250344 -1.809010 -28.216570 -1.738578 -1.504237 -54.200814 -5.791810 17.957487 0.851019 -20.238368 9.991993 -9.209086 -13.516586 14.037552 31.090719 4.188999 6.104162 53.482563 3.764734 14.204879 -8.946302 23.963027 -3.406563 3.178731 12.636714 5.120274 
0.360427 0.167152 0.998686 84.298469 0.784836 90.493945 7.703404 5.013807 5.213941 -4.149795 -0.342986 -5.170327 0.283873 8.452108 -3.473082 0.000000 -0.000000 0.000000 -6.645087 -3.098628 0.477088 2.301688 0.158267 0.507846 5.606404 -3.123328 -5.749003 0.000000 -0.000000 0.000000 -4.582280 3.535488 -9.060337 2.661406 -2.202649 16.059515 -0.495928 1.388950 -5.903109 4.349916 7.060083 4.580008 4.308412 -0.235830 -1.737943 -28.179167 -1.736344 -1.499299 -54.247322 -5.793040 17.943513 0.885420 -20.203211 10.002180 -9.207843 -13.513050 14.005809 31.052196 4.174856 6.121120 53.529644 3.830867 14.231430 -8.933347 23.933478 -3.376289 3.185284 12.610436 5.085075 
0.360380 0.167164 0.998686 84.295780 0.789934 90.489946 7.708700 5.012888 5.218013 -4.151165 -0.341274 -5.175006 0.281450 8.450327 -3.472553 0.000000 -0.000000 0.000000 -6.640351 -3.099518 0.480259 2.302925 0.162187 0.501085 5.606447 -3.125859 -5.744812 0.000000 -0.000000 0.000000 -4.581380 3.528957 -9.048734 2.654342 -2.198626 16.032382 -0.489191 1.380071 -5.873290 4.351343 7.058112 4.557442 4.299937 -0.235357 -1.700994 -28.159107 -1.731088 -1.494439 -54.266108 -5.785576 17.940192 0.898900 -20.189836 10.009948 -9.199255 -13.515184 13.987492 31.035380 4.164983 6.128760 53.551641 3.858927 14.244645 -8.926187 23.920637 -3.363149 3.185978 12.603660 5.062491 
0.360392 0.167098 0.998671 84.299787 0.798746 90.480932 7.718126 5.005379 5.225243 -4.142072 -0.325672 -5.170136 0.277840 8.456873 -3.459301 0.000000 -0.000000 0.000000 -6.629630 -3.088512 0.500359 2.304713 0.182484 0.479047 5.615388 -3.147964 -5.721663 0.000000 -0.000000 0.000000 -4.570237 3.501567 -9.014535 2.622291 -2.185537 15.929923 -0.463584 1.359260 -5.783865 4.361329 7.073734 4.487123 4.281109 -0.195777 -1.608516 -28.048166 -1.713286 -1.476485 -54.403238 -5.753772 17.946716 1.035233 -20.188479 10.108016 -9.268421 -13.483063 14.012471 30.941143 4.143809 6.167350 53.674263 3.941681 14.287828 -8.936679 23.934288 -3.308199 3.205189 12.549368 4.924352 
